<svg width="96" height="92" viewBox="0 0 96 92" fill="none" xmlns="http://www.w3.org/2000/svg">
<path d="M81.0076 7.15995L67.0076 19.38L43.5176 2.58995C41.8906 1.42408 39.9392 0.797119 37.9376 0.797119C35.936 0.797119 33.9846 1.42408 32.3576 2.58995L4.97761 22.1399C3.54971 23.1493 2.42846 24.5336 1.73761 26.1399C1.35374 27.0204 1.10753 27.9547 1.00761 28.91C1.00761 29.2199 0.95761 29.53 0.95761 29.84V31.9199V36.7V38.59V40.4799L0.897609 47.2799V49.1999V51.0899L0.667609 62.2799C0.64583 63.849 1.01022 65.3993 1.72868 66.7944C2.44714 68.1895 3.49762 69.3865 4.78761 70.28L12.4576 75.6299L14.3376 76.94L16.2276 78.2599L32.3876 89.53C34.0191 90.6551 35.9568 91.2518 37.9386 91.2393C39.9204 91.2267 41.8505 90.6056 43.4676 89.4599L45.0376 88.34L46.9276 87L48.8176 85.6499L70.8176 69.91C72.0555 69.0159 73.0635 67.8409 73.7589 66.4814C74.4543 65.122 74.8171 63.6169 74.8176 62.0899V39.61L93.3776 19.61C94.9085 17.9358 95.7355 15.7361 95.6867 13.4681C95.6378 11.2 94.7169 9.03798 93.1154 7.43127C91.5138 5.82456 89.3548 4.89674 87.0869 4.84063C84.819 4.78451 82.6167 5.60442 80.9376 7.12995L81.0076 7.15995ZM34.7676 5.99995C35.6918 5.33728 36.8004 4.98089 37.9376 4.98089C39.0748 4.98089 40.1834 5.33728 41.1076 5.99995L63.8276 22.1899L48.8276 35.32V31.38C48.8289 30.5426 48.6651 29.7132 48.3456 28.9392C48.0261 28.1652 47.5571 27.4618 46.9654 26.8692C46.3738 26.2766 45.6711 25.8065 44.8976 25.4858C44.1241 25.165 43.295 24.9999 42.4576 25H8.09761L34.7676 5.99995ZM45.0376 68.31C38.5676 71 30.2076 71.09 26.3676 69.59C26.0993 69.4863 25.8644 69.3114 25.6881 69.0841C25.5119 68.8568 25.4011 68.5856 25.3676 68.3C25.3265 68.0099 25.3653 67.7142 25.4799 67.4446C25.5944 67.175 25.7803 66.9417 26.0176 66.7699L29.9276 63.91C31.0146 63.1176 31.8754 62.0546 32.4245 60.8266C32.9736 59.5987 33.1919 58.2484 33.0576 56.91C32.8434 54.905 33.1896 52.8799 34.0576 51.0599C34.3674 50.3902 34.7497 49.7564 35.1976 49.1699C35.5038 48.7576 35.8379 48.3666 36.1976 48C36.4476 47.75 36.7176 47.5099 36.9876 47.2799C38.9441 45.6668 41.4018 44.7863 43.9376 44.79C44.3076 44.79 44.6776 44.79 45.0376 44.79H45.1676C45.763 44.8521 46.3519 44.9658 46.9276 45.13L47.1376 45.1899C47.4776 45.2906 47.8115 45.4108 48.1376 45.5499C48.3676 45.6399 48.5976 45.75 48.8176 45.86C49.0094 45.95 49.1964 46.0501 49.3776 46.16C50.2203 46.6673 50.9906 47.2863 51.6676 48C52.3557 48.6785 52.9418 49.4532 53.4076 50.3C53.7989 50.9973 54.0949 51.7439 54.2876 52.5199C54.4618 53.1737 54.5657 53.8442 54.5976 54.5199C54.6931 57.8455 53.6012 61.0963 51.5176 63.69C50.7464 64.6738 49.8291 65.5337 48.7976 66.2399C48.196 66.6741 47.5644 67.065 46.9076 67.41C46.2999 67.7414 45.6758 68.0417 45.0376 68.31ZM5.10761 29.91C5.11404 29.574 5.15085 29.2393 5.21761 28.91C5.6128 28.8324 6.0149 28.7955 6.41761 28.7999H42.4176C43.1011 28.8026 43.7558 29.0753 44.239 29.5585C44.7223 30.0418 44.995 30.6965 44.9976 31.38V41.08C44.6376 41.08 44.2676 41.08 43.8976 41.08C41.9637 41.0747 40.0479 41.4528 38.2611 42.1926C36.4742 42.9324 34.8518 44.0192 33.4876 45.3899C32.8844 46.0109 32.3326 46.6797 31.8376 47.3899H16.2276V40.59H38.8076V36.7299H5.04761L5.10761 29.91ZM5.01761 40.5099H12.4576V47.3099H4.95761L5.01761 40.5099ZM7.15761 66.83C6.43059 66.3255 5.83812 65.6508 5.43197 64.8646C5.02582 64.0784 4.81832 63.2048 4.82761 62.32L4.91761 51.0899H12.4576V70.5199L7.15761 66.83ZM41.0476 86C40.1292 86.6491 39.0322 86.9977 37.9076 86.9977C36.783 86.9977 35.686 86.6491 34.7676 86L16.2276 73.16V51.0899H29.9676C29.2984 53.1011 29.0699 55.2327 29.2976 57.3399C29.3576 58.018 29.2387 58.6999 28.9527 59.3176C28.6666 59.9353 28.2235 60.4671 27.6676 60.86L23.7676 63.73C22.9996 64.3131 22.4005 65.0899 22.0315 65.9807C21.6625 66.8716 21.5369 67.8446 21.6676 68.8C21.7872 69.7573 22.1649 70.6642 22.7603 71.4234C23.3557 72.1826 24.1463 72.7656 25.0476 73.11C27.6624 74.0031 30.4155 74.423 33.1776 74.3499C35.3944 74.346 37.6064 74.1452 39.7876 73.75C41.5897 73.4339 43.3624 72.969 45.0876 72.36V83.19L41.0476 86ZM70.7276 62C70.7279 62.8666 70.5212 63.7207 70.1246 64.4913C69.728 65.2619 69.153 65.9265 68.4476 66.4299L48.8176 80.4299V70.6799C51.0185 69.5274 52.9587 67.9344 54.5176 66C56.9887 62.9584 58.372 59.1781 58.4476 55.26C58.4476 54.96 58.4476 54.66 58.4476 54.37C60.682 53.9053 62.7142 52.7511 64.2576 51.07L70.7576 44.07L70.7276 62ZM90.7276 17L74.9376 34L72.8076 36.2999L70.7276 38.54L61.4676 48.54C60.4498 49.6254 59.1234 50.3723 57.6676 50.68C56.9823 48.6708 55.8428 46.8468 54.3376 45.3499C52.8395 43.8443 51.0307 42.684 49.0376 41.95C49.3564 40.5373 50.0955 39.2544 51.1576 38.27L66.9876 24.45L68.5876 23.0499L70.1976 21.6399L83.5176 9.99995C84.4551 9.0518 85.7309 8.51492 87.0643 8.50742C88.3977 8.49992 89.6795 9.02241 90.6276 9.95995C91.5758 10.8975 92.1126 12.1733 92.1201 13.5067C92.1276 14.84 91.6051 16.1218 90.6676 17.07L90.7276 17Z" fill="#0B7373"/>
</svg>
